<svg xmlns="http://www.w3.org/2000/svg" width="174" height="36" viewBox="0 0 174 36" fill="none">	<path d="M17.921 2C13.3234 2 2 13.3792 2 17.9999C2 22.6206 13.3234 34 17.921 34C22.5186 34 33.8422 22.6204 33.8422 17.9999C33.8422 13.3794 22.5188 2 17.921 2ZM15.44 27.1492C13.5012 26.6183 8.28864 17.455 8.81704 15.5066C9.34544 13.5581 18.4634 8.31979 20.4021 8.8508C22.341 9.38173 27.5535 18.5449 27.0252 20.4934C26.4968 22.4418 17.3787 27.6802 15.44 27.1492Z" fill="#836EF9" />	<path d="M57.2952 21.5466V21.5407L48.2488 4.77274C48.0707 4.44268 47.5786 4.52173 47.5117 4.89112L43.0065 29.7945C42.9623 30.0385 43.1489 30.2632 43.3957 30.2632H46.8814C47.0727 30.2632 47.2365 30.1257 47.2707 29.9366L49.8943 15.4059L56.9464 28.9168C57.0945 29.2006 57.4989 29.2006 57.6471 28.9168L64.6991 15.4059L67.3227 29.9366C67.3569 30.1257 67.5207 30.2632 67.712 30.2632H71.1977C71.4445 30.2632 71.6311 30.0385 71.5869 29.7945L67.0817 4.89112C67.0149 4.52173 66.5227 4.44268 66.3446 4.77274L57.2952 21.5466Z" fill="black" />	<path d="M86.2443 5.24121C79.0685 5.24121 73.4473 10.8451 73.4473 18.0005C73.4473 25.1559 79.0685 30.7629 86.2443 30.7629C93.4016 30.7629 99.0088 25.1574 99.0088 18.0005C99.0088 10.8436 93.4016 5.24121 86.2443 5.24121ZM86.2443 26.4906C81.5649 26.4906 77.8986 22.7609 77.8986 18.0005C77.8986 13.2401 81.5649 9.51353 86.2443 9.51353C90.9052 9.51353 94.5575 13.2417 94.5575 18.0005C94.5575 22.7593 90.9052 26.4906 86.2443 26.4906Z" fill="black" />	<path d="M118.732 20.928L103.726 4.69711C103.482 4.43241 103.041 4.60642 103.041 4.96772V29.8657C103.041 30.0852 103.218 30.2632 103.437 30.2632H107.064C107.283 30.2632 107.46 30.0852 107.46 29.8657V15.0466L122.432 31.3082C122.676 31.5736 123.118 31.3998 123.118 31.0381V6.14014C123.118 5.92056 122.941 5.74255 122.722 5.74255H119.127C118.909 5.74255 118.732 5.92056 118.732 6.14014V20.928Z" fill="black" />	<path d="M126.964 30.2628H130.86C131.014 30.2628 131.154 30.1727 131.219 30.0319L134.137 23.6813H143.468L146.32 30.0289C146.384 30.1713 146.525 30.2628 146.68 30.2628H150.907C151.198 30.2628 151.39 29.9563 151.263 29.6923L139.292 4.79589C139.148 4.49642 138.723 4.49642 138.579 4.79589L126.608 29.6923C126.481 29.9563 126.673 30.2628 126.964 30.2628ZM135.966 19.7411L138.866 13.4168L141.711 19.7411H135.966Z" fill="black" />	<path d="M160.717 5.74219H154.732C154.513 5.74219 154.336 5.9202 154.336 6.13977V29.8653C154.336 30.0849 154.513 30.2629 154.732 30.2629H160.717C168.138 30.2629 172.75 25.5649 172.75 18.001C172.75 10.4371 168.138 5.74219 160.717 5.74219ZM160.717 26.056H158.787V9.91628H160.717C165.535 9.91628 168.298 12.8633 168.298 18.001C168.298 23.12 165.535 26.056 160.717 26.056Z" fill="black" /></svg>